<svg xmlns="http://www.w3.org/2000/svg"  viewBox="0 0 64 64" width="64px" height="64px"><linearGradient id="jYkCxy9oac4GuVHrGd8toa" x1="32.09" x2="32.09" y1="38.66" y2="46.58" gradientUnits="userSpaceOnUse"><stop offset="0" stop-color="#6dc7ff"/><stop offset="1" stop-color="#e6abff"/></linearGradient><path fill="url(#jYkCxy9oac4GuVHrGd8toa)" d="M32.09,46.465c2.041,0,3.7-1.48,3.7-3.3c0-1.744-1.671-3.219-3.732-3.3	c-2.026,0.016-3.668,1.49-3.668,3.3C28.39,45.06,30.015,46.465,32.09,46.465z"/><linearGradient id="jYkCxy9oac4GuVHrGd8tob" x1="21.211" x2="21.211" y1="40.319" y2="48.286" gradientUnits="userSpaceOnUse"><stop offset="0" stop-color="#6dc7ff"/><stop offset="1" stop-color="#e6abff"/></linearGradient><path fill="url(#jYkCxy9oac4GuVHrGd8tob)" d="M23.15,48.34c0.102,0,0.188-0.008,0.26-0.018c0.083-0.687-0.311-2.354-1.25-3.469	c-1.234-1.429-2.459-2.103-3.094-2.13c-0.145,0.567-0.112,1.933,0.726,3.486C21.187,48.185,22.711,48.34,23.15,48.34z"/><linearGradient id="jYkCxy9oac4GuVHrGd8toc" x1="25.54" x2="25.54" y1="28.404" y2="35.975" gradientUnits="userSpaceOnUse"><stop offset="0" stop-color="#6dc7ff"/><stop offset="1" stop-color="#e6abff"/></linearGradient><path fill="url(#jYkCxy9oac4GuVHrGd8toc)" d="M28.155,34.914c0.701-1.034,0.985-2.254,0.761-3.317c-0.106-0.503-0.381-1.195-1.085-1.636	c-0.475-0.315-0.962-0.46-1.498-0.46c-1.262,0-2.549,0.784-3.36,2.045c-0.748,1.104-1.032,2.323-0.808,3.387	c0.106,0.503,0.381,1.195,1.085,1.636c0.413,0.269,0.862,0.395,1.368,0.395C25.89,36.963,27.278,36.159,28.155,34.914z"/><linearGradient id="jYkCxy9oac4GuVHrGd8tod" x1="32.054" x2="32.054" y1="22.511" y2="25.056" gradientUnits="userSpaceOnUse"><stop offset="0" stop-color="#6dc7ff"/><stop offset="1" stop-color="#e6abff"/></linearGradient><path fill="url(#jYkCxy9oac4GuVHrGd8tod)" d="M35.106,24.31c-0.411-0.526-1.837-1.345-3.116-1.345c-1.208,0-2.42,0.679-2.988,1.188	c0.432,0.341,1.419,0.812,2.988,0.812C33.836,24.965,34.778,24.541,35.106,24.31z"/><linearGradient id="jYkCxy9oac4GuVHrGd8toe" x1="42.527" x2="42.527" y1="40.319" y2="48.286" gradientUnits="userSpaceOnUse"><stop offset="0" stop-color="#6dc7ff"/><stop offset="1" stop-color="#e6abff"/></linearGradient><path fill="url(#jYkCxy9oac4GuVHrGd8toe)" d="M40.605,48.446c0.463,0,2.086-0.161,3.551-2.234c0.952-1.289,0.773-3.364,0.461-4.24	c-0.42,0.125-1.396,0.671-2.818,2.306c-1.158,1.286-1.701,3.313-1.602,4.132C40.305,48.431,40.441,48.446,40.605,48.446z"/><linearGradient id="jYkCxy9oac4GuVHrGd8tof" x1="38.436" x2="38.436" y1="28.404" y2="35.975" gradientUnits="userSpaceOnUse"><stop offset="0" stop-color="#6dc7ff"/><stop offset="1" stop-color="#e6abff"/></linearGradient><path fill="url(#jYkCxy9oac4GuVHrGd8tof)" d="M40.648,36.323c1.406-0.918,1.548-3.228,0.359-5.077c-0.807-1.21-2.126-1.979-3.425-1.979	c-0.532,0-1.014,0.133-1.433,0.395c-1.324,0.863-1.466,3.173-0.277,5.022c0.846,1.245,2.168,2.045,3.425,2.045	C39.807,36.729,40.261,36.593,40.648,36.323z"/><linearGradient id="jYkCxy9oac4GuVHrGd8tog" x1="31.994" x2="31.994" y1="51.888" y2="53.197" gradientUnits="userSpaceOnUse"><stop offset="0" stop-color="#6dc7ff"/><stop offset="1" stop-color="#e6abff"/></linearGradient><path fill="url(#jYkCxy9oac4GuVHrGd8tog)" d="M32.066,53.366c1.012,0,2.021-0.507,2.695-1.017c-0.607-0.161-1.411-0.293-2.272-0.293	c-0.105,0-0.399,0.011-0.399,0.011s-0.246-0.009-0.328-0.009c-0.908,0-1.835,0.183-2.535,0.397c0.69,0.462,1.652,0.912,2.592,0.912	C31.819,53.368,32.065,53.366,32.066,53.366z"/><linearGradient id="jYkCxy9oac4GuVHrGd8toh" x1="32" x2="32" y1="5.468" y2="60.44" gradientUnits="userSpaceOnUse"><stop offset="0" stop-color="#1a6dff"/><stop offset="1" stop-color="#c822ff"/></linearGradient><path fill="url(#jYkCxy9oac4GuVHrGd8toh)" d="M48.19,29.665l-0.4-0.6c0-4.5-2.1-6.4-4.5-7.8c0.7-0.2,1.5-0.4,1.7-1.3	c1.3-0.3,1.5-0.9,1.6-1.5c0.3-0.2,1.4-0.8,1.3-1.9c0.6-0.4,1-1,0.8-1.8c0.7-0.7,0.8-1.3,0.6-1.9c0.8-1,0.4-1.5,0.1-2	c0.6-1.1,0.1-2.3-1.6-2.1c-0.7-1-2.1-0.8-2.3-0.8c-0.2-0.3-0.5-0.6-1.5-0.5c-0.7-0.6-1.4-0.5-2.1-0.2c-0.9-0.7-1.5-0.1-2.2,0.1	c-1.1-0.4-1.3,0.1-1.9,0.3c-1.2-0.3-1.5,0.3-2.1,0.9h-0.7c-1.8,1.1-2.7,3.2-3,4.3c-0.3-1.1-1.2-3.3-3-4.3h-0.7	c-0.6-0.6-0.9-1.1-2.1-0.9c-0.5-0.2-0.8-0.7-1.9-0.3c-0.4-0.1-0.8-0.4-1.3-0.4l0,0c-0.3,0-0.5,0.1-0.8,0.3c-0.8-0.2-1.5-0.3-2.2,0.2	c-1-0.1-1.3,0.1-1.6,0.5c-0.2,0-1.7-0.2-2.3,0.8c-1.7-0.2-2.2,1-1.6,2.1c-0.3,0.5-0.7,1,0.1,2c-0.2,0.5-0.1,1.1,0.6,1.9	c-0.2,0.8,0.2,1.3,0.8,1.7c-0.1,1.1,1,1.7,1.3,1.9c0.1,0.6,0.4,1.2,1.6,1.5c0.2,0.9,1,1.1,1.7,1.3c-2.4,1.4-4.5,3.3-4.5,7.8	l-0.4,0.6c-2.7,1.8-5.2,7.2-1.3,11.6c0.3,1.4,0.7,2.4,1.1,3.5c0.6,4.4,4.3,6.5,5.3,6.7c1.4,1.1,3,2.1,5,2.9c1.9,2,4.1,2.8,6.2,2.8	h0.1c2.1,0,4.2-0.8,6.2-2.8c2.1-0.7,3.6-1.8,5-2.9c1-0.2,4.7-2.3,5.3-6.7c0.4-1.1,0.8-2.1,1.1-3.5	C53.49,36.765,50.99,31.365,48.19,29.665z M45.69,28.865c-0.1,1.8-9.5-6.4-7.9-6.6C42.19,21.565,45.79,24.165,45.69,28.865z M35.39,9.865c0.1,0.4,0.2,0.7,0.3,0.7c0.5-0.6,0.9-1.1,1.6-1.7c0,0.3-0.2,0.7,0.2,0.9c0.4-0.5,0.8-0.9,1.5-1.3	c-0.3,0.5-0.1,0.7,0.1,0.9c0.5-0.4,1-0.9,1.9-1.2c-0.2,0.3-0.6,0.6-0.2,1c0.5-0.3,1-0.6,2.2-0.9c-0.3,0.3-0.8,0.6-0.5,0.9	c0.6-0.2,1.3-0.4,2.1-0.5c-0.4,0.3-0.7,0.6-0.4,0.9c0.7-0.2,1.6-0.5,2.5-0.3l-0.6,0.6c0.1,0.1,1.5,0.1,2.4,0.1	c-0.3,0.5-0.7,1-0.9,1.8c0.1,0.1,0.6,0,1,0c-0.4,1-1.2,1.2-1.4,1.6c0.3,0.2,0.7,0.2,1.1,0c-0.3,0.7-1,1.1-1.5,1.7	c0.1,0.1,0.4,0.2,0.9,0.1c-0.5,0.5-1.1,1-1.8,1.5c0.1,0.1,0.6,0.1,1,0.2c-0.6,0.6-1.5,1-2.2,1.4c0.4,0.3,0.7,0.2,1,0.2	c-0.5,0.5-1.5,0.7-2.3,1c0.2,0.3,0.3,0.3,0.7,0.4c-0.9,0.5-2.2,0.3-2.6,0.5c0.1,0.3,0.3,0.4,0.6,0.6c-1.5,0.1-5.5-0.1-6.3-3.2	c1.5-1.7,4.3-3.7,9-6.1c-3.7,1.3-7,2.9-9.8,5.2C31.59,15.265,33.79,11.365,35.39,9.865z M31.99,20.965c2.3,0,5.2,1.7,5.2,3.4	c0,1.5-2,2.6-5.2,2.6c-3.1,0-5.2-1.5-5.2-2.9C26.79,22.965,29.39,20.965,31.99,20.965L31.99,20.965z M20.19,19.765	c0.4-0.1,0.5-0.1,0.7-0.4c-0.9-0.3-1.8-0.5-2.3-1c0.3,0,0.6,0.1,1-0.2c-0.8-0.4-1.6-0.7-2.2-1.4c0.4,0,0.8,0,1-0.2	c-0.7-0.4-1.3-0.9-1.8-1.5c0.6,0.1,0.8,0,0.9-0.1c-0.5-0.5-1.2-1-1.5-1.7c0.4,0.1,0.8,0.2,1.1,0c-0.4-0.3-1.2-0.5-1.6-1.5	c0.4,0,0.9,0.1,1,0c-0.2-0.8-0.6-1.3-0.9-1.8c0.9,0,2.4,0,2.3-0.1l-0.6-0.6c0.9-0.2,1.9,0,2.5,0.3c0.3-0.2,0-0.5-0.4-0.9	c0.8,0.1,1.5,0.3,2.1,0.5c0.3-0.3-0.2-0.6-0.5-0.9c1.2,0.2,1.7,0.5,2.2,0.9c0.4-0.4,0-0.7-0.2-1c1,0.4,1.5,0.8,2,1.3	c0.2-0.2,0.4-0.4,0.1-0.9c0.6,0.4,1.1,0.8,1.5,1.3c0.4-0.3,0.2-0.6,0.2-0.9c0.7,0.5,1.1,1.1,1.6,1.7c0.1-0.1,0.2-0.3,0.3-0.7	c1.6,1.6,3.9,5.5,0.6,7c-2.8-2.3-6.1-4-9.8-5.2c4.7,2.4,7.5,4.4,9,6.1c-0.8,3.1-4.8,3.2-6.3,3.2c0.3-0.1,0.6-0.3,0.6-0.6	C22.49,20.065,21.09,20.265,20.19,19.765z M25.69,22.165c1.6,0.3-7.8,8.5-7.9,6.6C17.59,23.965,21.29,21.365,25.69,22.165z M15.79,40.365c-2.3-1.8-3-7.2,1.2-9.6C19.59,30.065,17.89,41.265,15.79,40.365z M24.69,49.965c-1.3,0.8-4.4,0.5-6.6-2.7	c-1.5-2.7-1.3-5.4-0.3-6.2c1.6-1,4,0.3,5.9,2.5C25.29,45.465,26.09,48.965,24.69,49.965z M22.19,38.265c-2.4-1.5-2.8-5-0.9-7.8	c1.8-2.8,5.2-3.8,7.6-2.2c2.4,1.5,2.8,5,0.9,7.8C27.89,38.765,24.49,39.765,22.19,38.265z M31.99,55.365c-2.8,0.1-5.6-2.3-5.6-3.2	c0-1.2,3.4-2.2,5.7-2.1c2.3-0.1,5.3,0.7,5.4,1.8C37.49,53.065,34.69,55.465,31.99,55.365z M37.79,43.165c0,2.9-2.5,5.3-5.7,5.3	s-5.7-2.3-5.7-5.2c0,0,0,0,0-0.1c0-2.9,2.5-5.3,5.7-5.3C35.19,37.965,37.79,40.265,37.79,43.165L37.79,43.165z M34.19,35.765	c-1.8-2.8-1.4-6.3,0.9-7.8c2.4-1.5,5.8-0.5,7.6,2.2c1.8,2.8,1.4,6.3-0.9,7.8C39.49,39.565,36.09,38.565,34.19,35.765z M45.79,47.365	c-2.4,3.4-5.7,3.5-7,2.6c-1.3-1.2-0.3-5,1.5-7l0,0c2-2.3,4.2-3.8,5.7-2.6C46.89,41.365,47.49,45.065,45.79,47.365z M47.69,40.165	c-2.1,0.9-3.8-10.3-1.2-9.6C50.69,33.065,49.89,38.365,47.69,40.165z"/></svg>