<svg xmlns="http://www.w3.org/2000/svg"  viewBox="0 0 64 64" width="64px" height="64px"><linearGradient id="eyUDbnV~CsYh7pZNo4qiUa" x1="32" x2="32" y1="58" y2="14" gradientTransform="matrix(1 0 0 -1 0 66)" gradientUnits="userSpaceOnUse"><stop offset="0" stop-color="#6dc7ff"/><stop offset=".996" stop-color="#e6abff"/></linearGradient><path fill="url(#eyUDbnV~CsYh7pZNo4qiUa)" d="M42.495,49.331C39.374,51.032,35.798,52,32,52s-7.374-0.968-10.495-2.669l2.005-3.469	C26.039,47.224,28.929,48,32,48s5.958-0.781,8.487-2.144L42.495,49.331z M32,37.979c-0.561,0-1.101-0.222-1.481-0.61l-1.324-1.345	l-3.178,5.499C27.809,42.46,29.84,43,32,43s4.195-0.532,5.988-1.469l-3.182-5.506l-1.324,1.345	C33.101,37.757,32.561,37.979,32,37.979z M32,8c-12.131,0-22,9.869-22,22c0,6.538,2.87,12.416,7.413,16.449l8.145-14.117L24,30.75	V21c0-1.103,0.897-2,2-2h3v-5h6v5h3c1.103,0,2,0.897,2,2v9.75l-1.557,1.582l3.479,6.03c1.705-2.024,2.813-4.567,3.028-7.362h5	c-0.257,4.649-2.288,8.829-5.419,11.884l2.057,3.565C51.13,42.416,54,36.538,54,30C54,17.869,44.131,8,32,8z"/><linearGradient id="eyUDbnV~CsYh7pZNo4qiUb" x1="32" x2="32" y1="44" y2="36" gradientTransform="matrix(1 0 0 -1 0 66)" gradientUnits="userSpaceOnUse"><stop offset="0" stop-color="#6dc7ff"/><stop offset="1" stop-color="#e6abff"/></linearGradient><circle cx="32" cy="26" r="4" fill="url(#eyUDbnV~CsYh7pZNo4qiUb)"/><linearGradient id="eyUDbnV~CsYh7pZNo4qiUc" x1="32" x2="32" y1="62.032" y2="6.516" gradientTransform="matrix(1 0 0 -1 0 66)" gradientUnits="userSpaceOnUse"><stop offset="0" stop-color="#1a6dff"/><stop offset="1" stop-color="#c822ff"/></linearGradient><path fill="url(#eyUDbnV~CsYh7pZNo4qiUc)" d="M43.495,51.062	C40.079,52.933,36.162,54,32,54s-8.079-1.066-11.495-2.938l-1,1.731C23.215,54.835,27.474,56,32,56s8.785-1.165,12.495-3.207	L43.495,51.062z"/><linearGradient id="eyUDbnV~CsYh7pZNo4qiUd" x1="32" x2="32" y1="62" y2="6.484" gradientTransform="matrix(1 0 0 -1 0 66)" gradientUnits="userSpaceOnUse"><stop offset="0" stop-color="#1a6dff"/><stop offset="1" stop-color="#c822ff"/></linearGradient><path fill="url(#eyUDbnV~CsYh7pZNo4qiUd)" d="M15.378,49.975l1.017-1.763	C11.262,43.807,8,37.279,8,30C8,16.767,18.767,6,32,6s24,10.767,24,24c0,7.279-3.262,13.807-8.396,18.212l1.017,1.763	C54.348,45.202,58,38.02,58,30C58,15.664,46.337,4,32,4S6,15.664,6,30C6,38.02,9.652,45.202,15.378,49.975z"/><linearGradient id="eyUDbnV~CsYh7pZNo4qiUe" x1="32" x2="32" y1="62.032" y2="6.516" gradientTransform="matrix(1 0 0 -1 0 66)" gradientUnits="userSpaceOnUse"><stop offset="0" stop-color="#1a6dff"/><stop offset="1" stop-color="#c822ff"/></linearGradient><path fill="url(#eyUDbnV~CsYh7pZNo4qiUe)" d="M51.866,53.598l-6.092-10.559	c2.984-3.157,4.916-7.33,5.173-11.984c0.016-0.274-0.083-0.543-0.271-0.743C50.486,30.113,50.224,30,49.949,30h-5	c-0.522,0-0.957,0.402-0.997,0.923c-0.159,2.066-0.854,3.976-1.928,5.614l-2.334-4.046l0.735-0.747C40.793,31.37,41,30.866,41,30.34	V21c0-1.657-1.343-3-3-3h-2v-4c0-0.552-0.448-1-1-1h-6c-0.552,0-1,0.448-1,1v4h-2c-1.657,0-3,1.343-3,3v9.34	c0,0.526,0.207,1.03,0.576,1.405l0.735,0.747L12.134,53.598C12.046,53.75,12,53.922,12,54.098V59c0,0.357,0.19,0.687,0.499,0.865	c0.308,0.179,0.688,0.179,0.998,0.002l4.364-2.501c0.153-0.088,0.28-0.214,0.368-0.366l5.676-9.822C26.422,48.369,29.2,49,32,49	c2.891,0,5.629-0.668,8.089-1.833L45.771,57c0.089,0.153,0.216,0.279,0.369,0.367l4.362,2.5C50.657,59.956,50.828,60,51,60	c0.173,0,0.347-0.045,0.501-0.135C51.81,59.687,52,59.357,52,59v-4.902C52,53.922,51.954,53.75,51.866,53.598z M40.689,38.226	c-0.697,0.736-1.48,1.39-2.34,1.932l-2.296-3.973l2.181-2.215L40.689,38.226z M36.57,41.077C35.155,41.668,33.612,42,32,42	c-1.593,0-3.122-0.322-4.569-0.924l1.972-3.413l0.326,0.331c0.463,0.47,1.046,0.828,1.695,0.945	c1.041,0.187,2.053-0.139,2.771-0.867l0.402-0.409L36.57,41.077z M25,21c0-0.551,0.448-1,1-1h3c0.553,0,1-0.448,1-1v-4h4v4	c0,0.552,0.447,1,1,1h3c0.552,0,1,0.449,1,1v9.34l-6.231,6.328c-0.408,0.415-1.129,0.415-1.537,0L25,30.34V21z M39.087,45.433	C36.924,46.431,34.527,47,32,47c-2.45,0-4.882-0.536-7.093-1.556c-0.158-0.073-0.538-0.274-0.909-0.477	c-0.476-0.26-1.073-0.092-1.344,0.378l-6.022,10.421L14,57.274v-2.909L25.766,33.97l2.181,2.215l-2.784,4.818	c-0.286,0.495-0.099,1.13,0.41,1.391c0.365,0.187,0.721,0.362,0.854,0.42C28.179,43.577,30.081,44,32,44	c1.973,0,3.857-0.431,5.573-1.187c0.614-0.27,1.208-0.577,1.773-0.93c0.859-0.535,1.652-1.163,2.376-1.866	c0.505-0.49,0.972-1.016,1.399-1.577c1.405-1.844,2.377-4.039,2.723-6.441h3.015c-0.414,3.53-1.913,6.706-4.131,9.225	c-0.458,0.52-0.937,1.021-1.454,1.481c-0.749,0.667-1.557,1.268-2.415,1.795C40.292,44.85,39.695,45.153,39.087,45.433z M50,57.274	l-2.631-1.508l-5.517-9.547c0.858-0.524,1.668-1.115,2.431-1.765L50,54.365V57.274z"/></svg>